<svg width="211" height="213" viewBox="0 0 211 213" fill="none" xmlns="http://www.w3.org/2000/svg">
<path d="M65.6264 139.951V177.002H101.949C110.606 177.002 116.747 178.7 120.374 182.095C124.117 185.373 125.989 189.704 125.989 195.089C125.989 200.357 124.117 204.688 120.374 208.083C116.747 211.361 110.606 213 101.949 213H24.0396C15.383 213 9.18302 211.361 5.43962 208.083C1.81321 204.688 0 200.298 0 194.913C0 189.646 1.8717 185.373 5.61509 182.095C9.35849 178.7 15.5 177.002 24.0396 177.002H29.6547V36.1731H24.0396C15.383 36.1731 9.18302 34.5342 5.43962 31.2564C1.81321 27.8615 0 23.4716 0 18.0866C0 12.7016 1.81321 8.37016 5.43962 5.09233C9.18302 1.69744 15.383 0 24.0396 0L106.862 0.175598C131.194 0.175598 150.438 6.84831 164.592 20.1937C178.864 33.4221 186 49.5771 186 68.6587C186 79.1946 183.602 89.1451 178.806 98.5103C175.179 105.534 169.096 112.5 160.557 119.406C152.134 126.196 143.477 131.347 134.587 134.859C125.813 138.254 114.174 139.951 99.6679 139.951H65.6264ZM65.6264 103.954H98.966C114.642 103.954 127.042 100.442 136.166 93.418C145.408 86.277 150.028 77.7312 150.028 67.7807C150.028 59.352 146.285 51.9769 138.798 45.6554C131.428 39.3339 120.842 36.1731 107.038 36.1731H65.6264V103.954Z" fill="#117CFA"/>
<circle cx="186" cy="188" r="25" fill="#117CFA"/>
</svg>
