<svg width="620" height="604" viewBox="0 0 620 604" fill="none" xmlns="http://www.w3.org/2000/svg">
<path d="M310 0.943359C140.531 0.943359 0.96875 138.512 0.96875 309.975C0.96875 445.55 89.6906 561.187 213.303 603.056C229.253 606.046 234.237 596.078 234.237 589.1C234.237 582.121 234.237 562.184 233.241 535.268C147.509 555.206 129.566 493.4 129.566 493.4C115.609 458.509 94.675 448.54 94.675 448.54C66.7625 428.603 95.6719 428.603 95.6719 428.603C126.575 429.6 143.522 460.503 143.522 460.503C170.438 508.353 216.294 494.397 233.241 485.425C236.231 465.487 244.206 451.531 253.178 443.556C185.391 436.578 112.619 409.662 112.619 292.031C112.619 258.137 125.578 231.221 144.519 210.287C141.528 203.309 130.562 171.409 147.509 128.543C147.509 128.543 174.425 120.568 233.241 160.443C258.162 153.465 284.081 149.478 310.997 149.478C337.912 149.478 364.828 152.468 388.753 160.443C447.569 121.565 473.488 128.543 473.488 128.543C490.434 170.412 480.466 203.309 476.478 210.287C496.416 231.221 508.378 259.134 508.378 292.031C508.378 409.662 435.606 436.578 367.819 443.556C378.784 453.525 388.753 473.462 388.753 501.375C388.753 543.243 387.756 576.14 387.756 586.109C387.756 594.084 393.738 603.056 408.691 600.065C530.309 559.193 619.031 444.553 619.031 307.981C618.034 138.512 479.469 0.943359 310 0.943359Z" fill="#DFEBF7"/>
</svg>
