<svg width="578" height="579" viewBox="0 0 578 579" fill="none" xmlns="http://www.w3.org/2000/svg">
<path d="M577.739 170.1C576.806 140.25 571.209 118.795 564.68 99.2063C558.15 79.6172 547.889 63.7594 532.031 47.9016C516.173 32.0437 500.316 22.7156 481.659 15.2531C463.003 7.79062 442.481 3.12656 410.766 2.19375C378.117 0.328125 368.789 0.328125 289.5 0.328125C210.211 0.328125 201.816 0.328125 170.1 1.26094C138.384 2.19375 118.795 7.79063 99.2063 14.3203C79.6172 20.85 63.7594 32.0437 47.9016 47.9016C32.0438 63.7594 21.7828 79.6172 15.2531 99.2063C7.79062 117.863 3.12656 138.384 2.19375 170.1C1.26094 201.816 0.328125 210.211 0.328125 289.5C0.328125 368.789 0.328125 377.184 1.26094 408.9C2.19375 440.616 7.79063 460.205 14.3203 479.794C20.85 499.383 31.1109 515.241 46.9688 531.098C62.8266 546.956 79.6172 557.217 98.2734 563.747C116.93 570.277 137.452 575.873 169.167 576.806C200.883 578.672 209.278 578.672 288.567 578.672C367.856 578.672 376.252 578.672 407.967 577.739C439.683 576.806 459.272 571.209 478.861 564.68C498.45 558.15 514.308 547.889 530.166 532.031C546.023 516.173 556.284 499.383 562.814 480.727C569.344 462.07 574.941 441.548 575.874 409.833C576.806 379.983 576.806 370.655 576.806 291.366C576.806 212.077 578.672 201.816 577.739 170.1ZM525.502 406.102C524.569 434.086 518.972 449.011 515.241 460.205C509.644 473.264 503.114 483.525 492.853 492.853C482.592 503.114 473.264 508.711 460.205 515.241C449.944 518.972 435.019 524.569 406.102 525.502C376.252 525.502 366.923 525.502 290.433 525.502C213.942 525.502 203.681 525.502 173.831 524.569C145.847 523.636 130.922 518.039 119.728 514.308C106.669 508.711 96.4078 502.181 87.0797 491.92C76.8188 481.659 71.2219 472.331 64.6922 459.272C60.9609 449.011 55.3641 434.086 54.4313 405.169C54.4313 376.252 54.4313 366.923 54.4313 289.5C54.4313 212.077 54.4313 202.748 55.3641 172.898C56.2969 144.914 61.8938 129.989 65.625 118.795C71.2219 105.736 77.7516 95.475 87.0797 86.1469C97.3406 75.8859 106.669 70.2891 119.728 64.6922C129.989 60.9609 144.914 55.3641 173.831 54.4313C203.681 53.4984 213.009 53.4984 290.433 53.4984C367.856 53.4984 377.184 53.4984 407.034 54.4313C435.019 55.3641 449.944 60.9609 461.138 64.6922C474.197 70.2891 484.458 76.8187 493.786 86.1469C504.047 96.4078 509.644 105.736 516.173 118.795C519.905 129.056 525.502 143.981 526.434 172.898C527.367 202.748 527.367 212.077 527.367 289.5C527.367 366.923 526.434 376.252 525.502 406.102Z" fill="#DFEBF7"/>
<path d="M289.5 141.183C206.479 141.183 141.183 208.345 141.183 289.5C141.183 372.52 208.345 437.817 289.5 437.817C370.654 437.817 438.75 372.52 438.75 289.5C438.75 206.479 372.52 141.183 289.5 141.183ZM289.5 386.512C235.397 386.512 192.487 342.67 192.487 289.5C192.487 236.329 236.329 192.487 289.5 192.487C343.603 192.487 386.512 235.397 386.512 289.5C386.512 343.603 343.603 386.512 289.5 386.512Z" fill="#DFEBF7"/>
<path d="M445.28 169.167C464.341 169.167 479.794 153.715 479.794 134.653C479.794 115.592 464.341 100.139 445.28 100.139C426.218 100.139 410.766 115.592 410.766 134.653C410.766 153.715 426.218 169.167 445.28 169.167Z" fill="#DFEBF7"/>
</svg>
