<svg width="622" height="624" viewBox="0 0 622 624" fill="none" xmlns="http://www.w3.org/2000/svg">
<path d="M577.656 0.0625H45.3496C20.1934 0.0625 0.0683594 20.1875 0.0683594 45.3438V578.656C0.0683594 602.806 20.1934 623.938 45.3496 623.938H575.643C600.8 623.938 620.925 603.812 620.925 578.656V44.3375C622.937 20.1875 602.812 0.0625 577.656 0.0625ZM184.212 530.356H92.6433V233.513H184.212V530.356ZM137.925 192.256C107.737 192.256 84.5933 168.106 84.5933 138.925C84.5933 109.744 108.743 85.5938 137.925 85.5938C167.106 85.5938 191.256 109.744 191.256 138.925C191.256 168.106 169.118 192.256 137.925 192.256ZM531.368 530.356H439.8V386.463C439.8 352.25 438.793 306.969 391.5 306.969C343.2 306.969 336.156 345.206 336.156 383.444V530.356H244.587V233.513H334.143V274.769H335.15C348.231 250.619 377.412 226.469 422.693 226.469C516.275 226.469 533.381 286.844 533.381 369.356V530.356H531.368V530.356Z" fill="#DFEBF7"/>
</svg>
