<svg width="512" height="512" viewBox="0 0 512 512" fill="none" xmlns="http://www.w3.org/2000/svg">
<g clip-path="url(#clip0_229_23)">
<path d="M512 256C512 256.9 512 257.8 512 258.7C511.6 295.2 478.4 320 441.9 320H344C317.5 320 296 341.5 296 368C296 371.4 296.4 374.7 297 377.9C299.1 388.1 303.5 397.9 307.8 407.8C313.9 421.6 319.9 435.3 319.9 449.8C319.9 481.6 298.3 510.5 266.5 511.8C263 511.9 259.5 512 255.9 512C114.6 512 0 397.4 0 256C0 114.6 114.6 0 256 0C397.4 0 512 114.6 512 256ZM128 288C128 270.3 113.7 256 96 256C78.3 256 64 270.3 64 288C64 305.7 78.3 320 96 320C113.7 320 128 305.7 128 288ZM128 192C145.7 192 160 177.7 160 160C160 142.3 145.7 128 128 128C110.3 128 96 142.3 96 160C96 177.7 110.3 192 128 192ZM288 96C288 78.3 273.7 64 256 64C238.3 64 224 78.3 224 96C224 113.7 238.3 128 256 128C273.7 128 288 113.7 288 96ZM384 192C401.7 192 416 177.7 416 160C416 142.3 401.7 128 384 128C366.3 128 352 142.3 352 160C352 177.7 366.3 192 384 192Z" fill="#DFEBF7"/>
</g>
<defs>
<clipPath id="clip0_229_23">
<rect width="512" height="512" fill="white"/>
</clipPath>
</defs>
</svg>
