<svg width="480" height="449" viewBox="0 0 480 449" fill="none" xmlns="http://www.w3.org/2000/svg">
<path d="M89.1 171.6C96.8 149.8 109.3 129.3 126.9 111.8C189.4 49.3001 290.7 49.3001 353.2 111.8L370.3 129H320C302.3 129 288 143.3 288 161C288 178.7 302.3 193 320 193H447.5H447.9C465.6 193 479.9 178.7 479.9 161V33.0001C479.9 15.3001 465.6 1.0001 447.9 1.0001C430.2 1.0001 415.9 15.3001 415.9 33.0001V84.2001L398.4 66.6001C310.9 -20.8999 169.1 -20.8999 81.6 66.6001C57.2 91.0001 39.6 119.7 28.8 150.4C22.9 167.1 31.7 185.3 48.3 191.2C64.9 197.1 83.2 188.3 89.1 171.7V171.6ZM23 258.3C18 259.8 13.2 262.5 9.3 266.5C5.3 270.5 2.6 275.3 1.2 280.5C0.9 281.7 0.6 283 0.4 284.3C0.1 286 0 287.7 0 289.4V417C0 434.7 14.3 449 32 449C49.7 449 64 434.7 64 417V365.9L81.6 383.4C169.1 470.8 310.9 470.8 398.3 383.4C422.7 359 440.4 330.3 451.2 299.7C457.1 283 448.3 264.8 431.7 258.9C415.1 253 396.8 261.8 390.9 278.4C383.2 300.2 370.7 320.7 353.1 338.2C290.6 400.7 189.3 400.7 126.8 338.2L126.7 338.1L109.6 321H160C177.7 321 192 306.7 192 289C192 271.3 177.7 257 160 257H32.4C30.8 257 29.2 257.1 27.6 257.3C26 257.5 24.5 257.8 23 258.3Z" fill="#DFEBF7"/>
</svg>
