<svg width="512" height="512" viewBox="0 0 512 512" fill="none" xmlns="http://www.w3.org/2000/svg">
<g clip-path="url(#clip0_229_21)">
<path d="M481 30.9999C445.1 -4.8001 386.9 -4.8001 351 30.9999L336 45.9999L322.9 32.9999C294.8 4.8999 249.2 4.8999 221.1 32.9999L135 119C125.6 128.4 125.6 143.6 135 152.9C144.4 162.2 159.6 162.3 168.9 152.9L255 66.8999C264.4 57.4999 279.6 57.4999 288.9 66.8999L302.1 79.9999L186.3 195.7L316.3 325.7L481 161C516.9 125.1 516.9 66.8999 481 31.0999V30.9999ZM293.7 348.3L163.7 218.3L99.5 282.5C51.5 330.5 18.7 391.7 5.40001 458.3L0.400008 483.3C-1.19999 491.2 1.30001 499.3 7.00001 505C12.7 510.7 20.8 513.1 28.7 511.6L53.7 506.6C120.3 493.3 181.5 460.5 229.5 412.5L293.7 348.3Z" fill="#DFEBF7"/>
</g>
<defs>
<clipPath id="clip0_229_21">
<rect width="512" height="512" fill="white"/>
</clipPath>
</defs>
</svg>
