<svg width="660" height="395" viewBox="0 0 660 395" fill="none" xmlns="http://www.w3.org/2000/svg">
<path d="M186.273 143.392C186.273 166.733 197.943 177.342 197.943 183.708C197.943 186.891 196.882 187.952 193.7 190.073L179.907 198.561C178.846 199.622 175.664 199.622 173.542 199.622C173.542 199.622 165.054 200.683 152.323 173.098C137.47 192.195 113.068 204.927 88.6668 202.805C72.7527 203.866 27.1324 194.317 29.2543 144.453C28.1933 105.198 63.2043 80.7969 102.459 82.9187C109.886 82.9187 124.739 82.9187 150.201 89.2843V73.3703C153.384 46.8468 135.348 25.6281 103.52 28.8109C102.459 28.8109 84.423 28.8109 55.7777 39.4203C48.3511 43.664 48.3511 43.664 45.1683 43.664C37.7418 43.664 40.9246 22.4453 41.9855 18.2015C46.2293 11.8359 79.1183 0.165594 108.825 0.165594C130.043 -0.895344 150.201 4.40935 167.176 18.2015C180.968 33.0547 186.273 52.1515 185.212 72.3094L186.273 143.392ZM96.0933 176.281C128.982 176.281 143.836 155.062 147.018 144.453C148.079 133.844 148.079 128.539 148.079 115.808C137.47 114.747 122.617 111.564 106.703 111.564C91.8496 110.503 62.1433 117.93 63.2043 144.453C65.3261 163.55 76.9964 177.342 96.0933 176.281ZM272.209 199.622C263.721 200.683 260.539 195.378 258.417 189.012L207.492 20.3234C206.431 17.1406 206.431 13.9578 206.431 11.8359C206.431 8.6531 207.492 7.59216 210.675 7.59216C210.675 7.59216 209.614 7.59216 232.954 7.59216C241.442 6.53123 244.625 13.9578 246.746 18.2015L283.879 162.489L318.89 18.2015C319.951 15.0187 322.073 6.53123 332.682 7.59216H350.718C351.779 7.59216 362.389 7.59216 364.51 18.2015L398.461 164.611L435.593 18.2015C435.593 17.1406 438.776 6.53123 449.385 7.59216H470.604C471.665 7.59216 476.97 6.53122 474.848 16.0797C474.848 17.1406 478.031 4.40934 420.74 190.073C419.679 196.439 416.496 201.744 406.948 200.683H387.851C376.181 201.744 374.059 190.073 374.059 189.012L336.926 48.9687L302.976 189.012C302.976 190.073 301.915 200.683 289.184 200.683H273.27V199.622H272.209ZM552.296 205.987C545.931 205.987 518.346 205.987 493.945 194.317C489.701 193.256 485.457 186.891 485.457 182.647V170.977C485.457 162.489 491.823 163.55 493.945 164.611C504.554 168.855 509.859 172.037 523.651 175.22C560.784 183.708 577.759 174.159 582.003 170.977C595.795 162.489 596.856 144.453 586.246 134.905C575.637 126.417 571.393 126.417 532.139 113.686C528.956 111.564 488.64 98.8328 488.64 59.5781C487.579 30.9328 514.103 1.22654 559.723 1.22654C573.515 1.22654 607.465 5.47028 618.075 17.1406C619.136 18.2015 619.135 21.3843 619.135 24.5672V35.1765C619.135 39.4203 618.075 42.6031 614.892 42.6031C606.404 41.5422 593.673 30.9328 563.967 30.9328C556.54 30.9328 522.59 31.9937 524.712 56.3953C524.712 75.4922 553.357 82.9187 556.54 85.0406C593.673 96.7109 607.465 98.8328 620.196 116.869C638.232 139.148 628.684 165.672 624.44 173.098C604.282 210.231 554.418 205.987 552.296 205.987ZM594.734 314.203C523.651 366.189 418.618 394.834 330.56 394.834C209.614 396.956 92.9105 352.397 3.79176 271.766C-3.6348 265.4 2.73082 256.912 11.2183 263.278C109.886 318.447 221.284 348.153 335.865 348.153C420.74 348.153 504.554 330.117 583.064 297.228C595.795 291.923 606.404 304.655 594.734 314.203ZM624.44 280.253C615.953 268.583 562.906 276.009 540.626 277.07C533.2 278.131 532.139 272.827 539.565 268.583C580.942 239.937 648.842 247.364 656.268 256.912C664.756 265.4 655.207 334.361 614.892 367.25C608.526 371.494 603.221 368.311 606.404 363.006C613.831 339.666 632.928 291.923 624.44 280.253Z" fill="#DFEBF7"/>
</svg>
