<svg width="384" height="449" viewBox="0 0 384 449" fill="none" xmlns="http://www.w3.org/2000/svg">
<path d="M329.1 110.9C266.6 48.4002 173.3 48.4002 110.8 110.9C48.2996 173.4 48.2996 274.7 110.8 337.2C173.3 399.7 266.6 399.7 329.1 337.2C341.6 324.7 361.9 324.7 374.4 337.2C386.9 349.7 386.9 370 374.4 382.5C286.9 470 153.1 470 65.5996 382.5C-21.9004 295 -21.9004 153.2 65.5996 65.7002C153.1 -21.7998 286.9 -21.7998 374.4 65.7002C386.9 78.2002 386.9 98.5002 374.4 111C361.9 123.5 341.6 123.5 329.1 111V110.9Z" fill="#DFEBF7"/>
</svg>
