<svg width="529" height="773" viewBox="0 0 529 773" fill="none" xmlns="http://www.w3.org/2000/svg">
<path d="M528.239 469.309V314.983C528.239 313.728 528.239 312.473 528.239 311.219V154.383C528.239 67.8093 412.808 0.0561523 264.755 0.0561523C116.702 0.0561523 0.015625 69.064 0.015625 154.383V309.964C0.015625 311.219 0.015625 313.728 0.015625 314.983V469.309C0.015625 470.564 0.015625 471.819 0.015625 473.073V618.617C0.015625 703.936 117.956 772.944 263.5 772.944C409.044 772.944 526.984 703.936 526.984 618.617V473.073C526.984 471.819 528.239 470.564 528.239 469.309ZM53.9672 402.811C102.9 439.197 181.945 460.527 263.5 460.527C347.564 460.527 424.1 439.197 473.033 402.811C476.797 400.301 480.561 397.792 483.07 394.028V471.819C479.306 522.006 391.478 574.703 263.5 574.703C134.267 574.703 46.4391 522.006 43.9297 470.564V392.773C46.4391 397.792 50.2031 400.301 53.9672 402.811ZM43.9297 313.728V240.956C90.3531 282.361 170.653 308.709 263.5 308.709C356.347 308.709 436.647 282.361 483.07 240.956V312.473C481.816 336.312 462.995 355.133 446.684 366.425C405.28 397.792 337.527 415.358 263.5 415.358C190.728 415.358 121.72 396.537 80.3156 366.425C64.0047 356.387 45.1844 337.567 43.9297 313.728ZM263.5 45.2249C382.695 45.2249 483.07 95.4124 483.07 155.637C483.07 215.862 382.695 266.05 263.5 266.05C144.305 266.05 43.9297 215.862 43.9297 155.637C43.9297 95.4124 144.305 45.2249 263.5 45.2249ZM263.5 729.03C134.267 729.03 43.9297 671.314 43.9297 618.617V554.628C90.3531 594.778 170.653 621.127 263.5 621.127C356.347 621.127 436.647 594.778 483.07 554.628V618.617C483.07 670.059 392.733 729.03 263.5 729.03Z" fill="#DFEBF7"/>
</svg>
