<svg width="443" height="661" viewBox="0 0 443 661" fill="none" xmlns="http://www.w3.org/2000/svg">
<path d="M332.162 218.773C393.878 218.773 442.825 169.827 442.825 108.111C442.825 46.3953 391.75 0.640625 332.162 0.640625H110.837C49.1217 0.640625 0.174805 49.5875 0.174805 111.303C0.174805 173.019 49.1217 221.966 110.837 221.966C49.1217 221.966 0.174805 270.913 0.174805 332.628C0.174805 394.344 49.1217 443.291 110.837 443.291C49.1217 443.291 0.174805 492.237 0.174805 553.953C0.174805 615.669 50.1858 660.359 110.837 660.359C171.489 660.359 221.5 611.412 221.5 549.697V221.966H332.162V218.773ZM332.162 218.773C270.447 218.773 221.5 267.72 221.5 329.436C221.5 391.152 270.447 440.098 332.162 440.098C393.878 440.098 442.825 391.152 442.825 329.436C439.633 267.72 391.75 218.773 332.162 218.773Z" fill="#DFEBF7"/>
</svg>
