<svg width="749" height="856" viewBox="0 0 749 856" fill="none" xmlns="http://www.w3.org/2000/svg">
<path d="M374.5 26.75C363.298 26.75 356.444 22.0687 348.586 16.5516C337.552 9.02812 324.344 0 294.25 0C243.258 0 207.312 73.0609 183.906 149.466C104.827 164.011 53.5 187.584 53.5 214C53.5 237.908 95.2969 259.308 161.503 274.02C160.834 280.708 160.5 287.395 160.5 294.25C160.5 322.672 166.017 349.756 176.048 374.5H75.9031C63.5313 374.5 53.5 384.531 53.5 396.903C53.5 399.745 54.0016 402.587 55.1719 405.262L120.041 567.267C47.1469 621.603 0 708.541 0 806.345C0 833.764 22.2359 856 49.6547 856H699.345C726.764 856 749 833.764 749 806.345C749 708.541 701.853 621.77 629.127 567.267L693.828 405.262C694.831 402.587 695.5 399.745 695.5 396.903C695.5 384.531 685.469 374.5 673.097 374.5H572.952C582.983 349.756 588.5 322.672 588.5 294.25C588.5 287.395 588.166 280.708 587.497 274.02C653.703 259.308 695.5 237.908 695.5 214C695.5 187.584 644.173 164.011 565.094 149.466C541.688 73.0609 505.742 0 454.75 0C424.656 0 411.448 9.02812 400.414 16.5516C392.556 22.0687 385.702 26.75 374.5 26.75ZM468.125 374.5H447.394C419.808 374.5 395.398 356.778 386.705 330.697C382.859 318.994 366.308 318.994 362.463 330.697C353.769 356.778 329.192 374.5 301.773 374.5H280.875C243.927 374.5 214 344.573 214 307.625V283.55C261.147 290.405 315.984 294.25 374.5 294.25C433.016 294.25 487.853 290.405 535 283.55V307.625C535 344.573 505.073 374.5 468.125 374.5ZM321 535L347.75 588.5L294.25 802.5L214 481.5L321 535ZM535 481.5L454.75 802.5L401.25 588.5L428 535L535 481.5Z" fill="#DFEBF7"/>
</svg>
