<svg width="631" height="631" viewBox="0 0 631 631" fill="none" xmlns="http://www.w3.org/2000/svg">
<path d="M0.171875 0.171875V630.828H630.828V0.171875H0.171875ZM343.981 491.473C343.981 553.522 307.362 582.003 254.469 582.003C207.678 582.003 180.214 557.591 165.973 527.075L214.798 496.559C222.936 513.852 232.091 527.075 253.452 527.075C273.795 527.075 284.984 519.955 284.984 489.439V290.07H343.981V491.473ZM484.353 582.003C429.425 582.003 393.823 554.539 375.514 521.989L424.339 493.508C437.563 513.852 454.855 529.109 483.336 529.109C507.748 529.109 523.006 517.92 523.006 498.594C523.006 478.25 507.748 471.13 480.284 458.923L466.044 452.82C423.322 435.528 394.841 411.116 394.841 362.291C394.841 317.534 427.391 284.984 481.302 284.984C518.937 284.984 545.384 298.208 564.711 332.792L518.938 363.308C508.766 346.016 498.594 337.878 480.284 337.878C462.992 337.878 451.803 349.067 451.803 363.308C451.803 380.6 462.992 387.72 487.405 398.909L501.645 405.012C551.487 426.373 580.986 447.734 580.986 498.594C582.003 552.505 540.298 582.003 484.353 582.003Z" fill="#DFEBF7"/>
</svg>
