<svg width="790" height="796" viewBox="0 0 790 796" fill="none" xmlns="http://www.w3.org/2000/svg">
<path d="M775.495 295.875C761.384 241.997 735.728 199.664 681.85 199.664H610.012V284.33C610.012 349.753 553.569 404.914 493.277 404.914H302.137C249.542 404.914 208.492 449.812 208.492 502.408V683.284C208.492 733.314 253.391 764.101 302.137 780.778C361.147 798.737 418.873 802.586 491.994 780.778C539.458 766.667 585.639 739.728 585.639 683.284V611.447H397.066V588.356H681.85C735.728 588.356 757.536 549.872 775.495 492.145C794.738 429.287 794.738 371.561 775.495 295.875ZM503.539 655.062C522.781 655.062 539.458 671.739 539.458 690.981C539.458 710.223 522.781 726.9 503.539 726.9C484.297 728.183 467.62 710.223 467.62 690.981C466.338 671.739 483.014 655.062 503.539 655.062ZM293.158 380.54H483.014C535.609 380.54 576.659 336.925 576.659 283.047V104.736C576.659 54.7061 533.044 16.2218 483.014 7.24209C420.156 -1.7376 350.884 -1.7376 293.158 7.24209C212.341 21.353 199.512 50.8577 199.512 104.736V176.573H389.369V199.664H130.241C76.3625 199.664 27.6156 234.3 13.5047 295.875C-4.45469 367.712 -4.45469 412.611 13.5047 487.014C27.6156 543.458 58.4031 583.225 114.847 583.225H176.422V497.276C175.139 434.419 230.3 380.54 293.158 380.54ZM281.613 127.826C262.37 127.826 245.694 111.15 245.694 91.9077C245.694 72.6655 262.37 55.989 281.613 55.989C300.855 55.989 317.531 72.6655 317.531 91.9077C317.531 111.15 300.855 127.826 281.613 127.826Z" fill="#DFEBF7"/>
</svg>
